#!OML:ASF I:\Actors\actors\Patient Classification 2\Patient 1\Session 1\actor1.ASF
:FULLY-SPECIFIED
:DEGREES
545
root -0.742588 18.7117 5.18065 3.82906 0.532596 -1.82053
lowerback 1.55082 0.261136 -1.49203
upperback -4.31135 0.336238 1.07846
thorax -5.34375 0.255869 1.93303
lowerneck -12.565 -2.58575 -3.24803
upperneck 20.0449 -3.52754 2.92602
head 8.41258 -1.62015 1.13507
rclavicle 6.43565e-015 1.78906e-015
rhumerus -62.4883 -16.1872 -69.1553
rradius 44.0089
rwrist 17.1226
rhand -3.26275 -41.1239
rfingers 7.12502
rthumb 22.4618 -69.8377
lclavicle 6.43565e-015 1.78906e-015
lhumerus -48.514 5.51034 84.4005
lradius 40.9562
lwrist -4.85487
lhand -3.18974 -26.401
lfingers 7.12502
lthumb 22.5319 2.30433
rfemur 6.07371 -1.19789 15.9845
rtibia -7.95139e-015
rfoot -16.6633 -9.37814
rtoes -2.94989
lfemur -5.54776 -8.6092 -12.5814
ltibia 21.2586
lfoot -22.9141 11.1495
ltoes -55.4246
546
root -0.743971 18.7123 5.17697 3.78825 0.523253 -1.88742
lowerback 1.58714 0.249995 -1.44463
upperback -4.24653 0.323678 1.09639
thorax -5.29555 0.247036 1.92563
lowerneck -12.4608 -2.55207 -3.10869
upperneck 19.959 -3.49519 2.85188
head 8.3595 -1.60318 1.09177
rclavicle 5.5287e-016 1.58034e-014
rhumerus -62.3191 -16.1608 -69.6068
rradius 44.196
rwrist 16.7571
rhand -3.1911 -41.0614
rfingers 7.12502
rthumb 22.5306 -69.7669
lclavicle 5.5287e-016 1.58034e-014
lhumerus -48.4547 5.44541 84.5031
lradius 40.8872
lwrist -4.84193
lhand -3.18691 -26.3611
lfingers 7.12502
lthumb 22.5346 2.34383
rfemur 6.10581 -1.18175 16.0614
rtibia 6.36111e-015
rfoot -16.6783 -9.37748
rtoes -2.91609
lfemur -5.51685 -8.61082 -12.5059
ltibia 21.2643
lfoot -22.9103 11.1321
ltoes -55.3496
547
root -0.744751 18.713 5.1722 3.7718 0.491829 -1.92619
lowerback 1.63296 0.260632 -1.3848
upperback -4.20527 0.339278 1.0819
thorax -5.27843 0.251439 1.87587
lowerneck -12.4549 -2.5489 -2.94246
upperneck 19.9975 -3.50719 2.75752
head 8.36683 -1.60575 1.03128
rclavicle 1.11878e-014 9.0447e-015
rhumerus -62.1511 -16.0363 -70.1284
rradius 44.406
rwrist 16.4072
rhand -2.92963 -40.9524
rfingers 7.12502
rthumb 22.7815 -69.6272
lclavicle 1.11878e-014 9.0447e-015
lhumerus -48.3898 5.3287 84.6136
lradius 40.8072
lwrist -4.85125
lhand -3.24733 -26.3059
lfingers 7.12502
lthumb 22.4766 2.40608
rfemur 6.0977 -1.14714 16.1055
rtibia 6.36111e-015
rfoot -16.6726 -9.38792
rtoes -2.74229
lfemur -5.52749 -8.56451 -12.4663
ltibia 21.286
lfoot -22.858 11.1708
ltoes -55.3729
548
root -0.74584 18.7136 5.16816 3.75908 0.451956 -1.96585
lowerback 1.68319 0.269588 -1.34096
upperback -4.18555 0.352908 1.08767
thorax -5.28668 0.256429 1.85625
lowerneck -12.4459 -2.54987 -2.8919
upperneck 20.0818 -3.52236 2.75896
head 8.39313 -1.6087 1.02176
rclavicle -6.91398e-015 -6.95746e-015
rhumerus -61.9856 -15.8804 -70.6115
rradius 44.5849
rwrist 16.1719
rhand -2.79688 -40.686
rfingers 7.12502
rthumb 22.9089 -69.3451
lclavicle -6.91398e-015 -6.95746e-015
lhumerus -48.3688 5.20539 84.7669
lradius 40.7563
lwrist -4.85597
lhand -3.24003 -26.2514
lfingers 7.12502
lthumb 22.4836 2.45972
rfemur 6.08023 -1.10451 16.1554
rtibia 0
rfoot -16.6465 -9.41867
rtoes -2.77507
lfemur -5.53 -8.56514 -12.428
ltibia 21.302
lfoot -22.8648 11.2329
ltoes -55.423
549
root -0.747252 18.7139 5.16555 3.75528 0.428559 -2.00467
lowerback 1.72071 0.267295 -1.32225
upperback -4.17543 0.351602 1.11606
thorax -5.29755 0.255676 1.87521
lowerneck -12.3883 -2.55407 -2.94493
upperneck 20.1198 -3.53233 2.81796
head 8.39782 -1.6119 1.04988
rclavicle -1.34086e-014 1.68967e-015
rhumerus -61.8482 -15.7298 -71.037
rradius 44.7593
rwrist 16.0313
rhand -2.84943 -40.1474
rfingers 7.12502
rthumb 22.8585 -68.8127
lclavicle -1.34086e-014 1.68967e-015
lhumerus -48.3991 5.07837 84.9319
lradius 40.7449
lwrist -4.82286
lhand -3.13935 -26.3223
lfingers 7.12502
lthumb 22.5802 2.37714
rfemur 6.06545 -1.07897 16.208
rtibia -4.77083e-015
rfoot -16.6502 -9.42963
rtoes -2.67488
lfemur -5.53305 -8.58138 -12.3833
ltibia 21.3098
lfoot -22.8896 11.2618
ltoes -55.459
550
root -0.748473 18.7142 5.16329 3.76819 0.410398 -1.99551
lowerback 1.73871 0.257053 -1.37734
upperback -4.1678 0.336617 1.14546
thorax -5.29996 0.251165 1.93758
lowerneck -12.3204 -2.55245 -2.97687
upperneck 20.1167 -3.52702 2.82733
head 8.385 -1.61158 1.05968
rclavicle -4.58137e-015 -1.05356e-014
rhumerus -61.6822 -15.4987 -71.4647
rradius 44.9405
rwrist 15.8685
rhand -2.89871 -39.7451
rfingers 7.12502
rthumb 22.8112 -68.4162
lclavicle -4.58137e-015 -1.05356e-014
lhumerus -48.4379 5.03201 85.0453
lradius 40.7682
lwrist -4.85881
lhand -2.99071 -26.4022
lfingers 7.12502
lthumb 22.7229 2.27979
rfemur 6.03876 -1.06255 16.2034
rtibia -1.90833e-014
rfoot -16.6647 -9.4212
rtoes -2.4283
lfemur -5.5565 -8.5667 -12.3904
ltibia 21.3221
lfoot -22.8732 11.2917
ltoes -55.5228
551
root -0.748921 18.7152 5.16139 3.79138 0.385619 -1.99304
lowerback 1.73766 0.247738 -1.39969
upperback -4.1591 0.323654 1.1569
thorax -5.28995 0.245746 1.96282
lowerneck -12.2695 -2.53806 -2.97721
upperneck 20.1202 -3.51892 2.87504
head 8.37747 -1.60349 1.07717
rclavicle 5.86104e-015 5.51627e-015
rhumerus -61.4568 -15.2605 -71.8962
rradius 45.0687
rwrist 15.7165
rhand -2.87197 -39.4657
rfingers 7.12502
rthumb 22.8368 -68.1337
lclavicle 5.86104e-015 5.51627e-015
lhumerus -48.453 5.04151 85.0881
lradius 40.8331
lwrist -5.02232
lhand -2.79562 -26.4579
lfingers 7.12502
lthumb 22.9101 2.20101
rfemur 6.00646 -1.03964 16.2008
rtibia 1.43125e-014
rfoot -16.6525 -9.41332
rtoes -2.43458
lfemur -5.58887 -8.55412 -12.3919
ltibia 21.3346
lfoot -22.863 11.3324
ltoes -55.55
